# xmcd
#
# Track frame offsets: 
#        150
#        17661
#        40082
#        62555
#        80603
#
# Disc length: 1287 seconds
#
# Revision: 0
# Processed by: cddbd v1.5.2PL0 Copyright (c) Steve Scherf et al.
# Submitted via: ExactAudioCopy v0.99pb3
#
DISCID=33050505
DTITLE=Alphastone - Life's A Motorway
DYEAR=2000
DGENRE=Enraptured
TTITLE0=Life's A Motorway (EP mix)
TTITLE1=Life's A Motorway (Doinky mix by Flowchart with Tleilaxu)
TTITLE2=Life's A Motorway (Changing Lane mix by Accelera Deck)
TTITLE3=Life's A Motorway (Bliss mix by Pacifica)
TTITLE4=Life's A Motorway (HGV mix by Steve Janes)
EXTD=
EXTT0=
EXTT1=
EXTT2=
EXTT3=
EXTT4=
PLAYORDER=
